<?xml version="1.0" encoding="utf-8"?>
<!-- Generator: Adobe Illustrator 22.1.0, SVG Export Plug-In . SVG Version: 6.00 Build 0)  -->
<svg version="1.1" id="Слой_1" xmlns="http://www.w3.org/2000/svg" xmlns:xlink="http://www.w3.org/1999/xlink" x="0px" y="0px"
	 viewBox="0 0 76 76" style="enable-background:new 0 0 76 76;" xml:space="preserve">
<style type="text/css">
	.st0{fill:#48234E;}
	.st1{fill:#FFFFFF;}
</style>
<g>
	<g>
		<circle class="st0" cx="38" cy="38" r="38"/>
	</g>
	<g>
		<path class="st1" d="M12.7,46.2c-1.2,0.6-2.6,1.3-3.8,1.9l0,0c1.3-0.2,2.7-0.4,4-0.5l4.6-0.5l0.6,1.3l-3.4,3
			c-1,0.9-2.1,1.8-3.2,2.6l0,0c1.2-0.5,2.7-1.1,4-1.6l3.8-1.5l0.7,1.6l-9.5,3.6l-1-2.2l3.2-2.9c0.9-0.8,1.9-1.6,2.8-2.3l0,0
			c-1.1,0.2-2.4,0.4-3.6,0.5l-4.3,0.4l-1-2.2l9-4.7l0.7,1.6L12.7,46.2z"/>
		<path class="st1" d="M15.7,36.7l-0.8,0.1v0c0.6,0.5,1,1.2,1,2.2c0,1.5-1.1,2.3-2.2,2.3c-1.8,0-2.8-1.6-2.8-4.3h-0.1
			c-0.5,0-1.3,0.2-1.3,1.5c0,0.7,0.2,1.5,0.5,2l-1.2,0.4c-0.3-0.5-0.6-1.5-0.6-2.6c0-2.3,1.5-3,3.1-3l2.6,0c0.7,0,1.3,0,1.8-0.1
			V36.7z M12.2,36.9c0,1.3,0.3,2.5,1.4,2.5c0.7,0,1-0.5,1-1.1c0-0.7-0.5-1.3-1-1.4c-0.1,0-0.3-0.1-0.4-0.1L12.2,36.9z"/>
		<path class="st1" d="M11.4,31.4c-0.9-0.3-1.6-0.6-2.3-0.8l0.6-1.5l1.1,0.3l0,0c-0.6-0.8-0.7-1.8-0.3-2.8C11,25,12.9,24.2,15,25
			c2.5,0.9,3.1,2.9,2.5,4.5c-0.3,0.9-1,1.4-1.6,1.6l0,0l3.5,1.3l-0.6,1.7L11.4,31.4z M13.8,30.3c0.2,0.1,0.3,0.1,0.5,0.1
			c0.8,0.1,1.5-0.3,1.8-1.1c0.4-1.1-0.3-2.1-1.6-2.6c-1.2-0.5-2.4-0.2-2.8,0.9c-0.3,0.7,0,1.6,0.7,2c0.1,0.1,0.3,0.2,0.4,0.2
			L13.8,30.3z"/>
	</g>
	<g>
		<path class="st1" d="M55,10c0.6,0.3,1.5,0.9,2.3,1.6c1.1,0.9,1.8,1.7,1.9,2.6c0.1,0.7,0,1.5-0.6,2.1c-0.8,1-2.1,1.2-3,0.9l0,0
			c0.4,0.7,0.3,1.5-0.1,2.4c-0.5,1.2-1,2.3-1.1,2.7L53,21.1c0.1-0.3,0.4-1.1,0.9-2.3c0.6-1.2,0.5-1.8-0.3-2.5l-0.7-0.6L50.3,19
			l-1.4-1.1L55,10z M53.7,14.7l0.9,0.7c1,0.8,2,0.7,2.6-0.1c0.7-0.9,0.4-1.8-0.6-2.5c-0.5-0.4-0.8-0.6-1-0.6L53.7,14.7z"/>
		<path class="st1" d="M58.6,23c-1.1,0.7-1.1,1.9-0.4,2.9c0.4,0.7,0.9,1.2,1.3,1.6l-0.9,0.9c-0.5-0.4-1.2-1-1.7-1.9
			c-1.2-2-0.7-4,1.2-5.1c1.7-1.1,4-1,5.2,1c1.2,2,0,3.7-1.4,4.5c-0.3,0.2-0.5,0.3-0.7,0.4L58.6,23z M61.4,25.1
			c0.6-0.3,1.4-1.2,0.7-2.2c-0.6-1-1.7-0.8-2.4-0.5L61.4,25.1z"/>
		<path class="st1" d="M59,30.8l5.7-1.6l-0.3-1l1.3-0.4l0.3,1l0.3-0.1c0.9-0.2,1.9-0.2,2.6,0.2c0.6,0.4,1,1,1.2,1.7
			c0.1,0.5,0.2,0.9,0.1,1.2l-1.4,0.2c0-0.2,0-0.5-0.1-0.8c-0.2-0.9-1.1-1-1.9-0.8l-0.4,0.1l0.4,1.5l-1.3,0.4L65.2,31l-5.7,1.6
			L59,30.8z"/>
		<path class="st1" d="M65,35.5c1,0,1.7-0.1,2.4-0.1l0,1.6l-1.4,0.1l0,0.1c1,0.3,1.6,1.2,1.6,2c0,0.2,0,0.3,0,0.4l-1.7,0.1
			c0-0.2,0.1-0.3,0-0.5c0-0.9-0.6-1.5-1.4-1.6c-0.2,0-0.4,0-0.6,0l-3.8,0.1l-0.1-1.8L65,35.5z"/>
		<path class="st1" d="M62.8,43.2c-1.3-0.3-2.1,0.6-2.4,1.7c-0.2,0.8-0.3,1.5-0.2,2l-1.3-0.1c-0.1-0.7,0-1.6,0.2-2.6
			c0.6-2.3,2.4-3.3,4.5-2.7c2,0.5,3.5,2.2,2.9,4.5c-0.6,2.3-2.7,2.5-4.2,2.1c-0.3-0.1-0.6-0.2-0.7-0.3L62.8,43.2z M63.2,46.7
			c0.6,0.2,1.8,0.2,2.1-1c0.3-1.1-0.6-1.8-1.3-2.1L63.2,46.7z"/>
		<path class="st1" d="M59.1,49.5c-0.4,0.2-1.1,0.7-1.5,1.3c-0.4,0.7-0.4,1.2,0.1,1.4c0.4,0.3,0.8,0.2,1.5-0.4
			c1.2-0.9,2.2-1,2.9-0.5c1.1,0.7,1.4,2.1,0.4,3.6c-0.4,0.7-1,1.2-1.4,1.4l-0.9-1c0.3-0.2,0.8-0.5,1.2-1.1c0.4-0.6,0.3-1-0.1-1.3
			c-0.4-0.3-0.8-0.1-1.5,0.5c-1.1,0.9-2,1-2.9,0.4c-1.1-0.7-1.4-2.1-0.3-3.7c0.5-0.7,1.1-1.3,1.6-1.6L59.1,49.5z"/>
		<path class="st1" d="M60.7,62.4l-1.5,1.2l-2.7-3.4l0,0c0,0.4,0,0.8-0.2,1.2c-0.2,0.4-0.4,0.8-0.8,1c-1,0.8-2.5,0.9-4-0.9l-2.7-3.4
			l1.4-1.2l2.6,3.2c0.7,0.8,1.5,1.2,2.3,0.6c0.6-0.4,0.7-1.1,0.5-1.7c0-0.2-0.2-0.3-0.3-0.5l-2.7-3.4L54,54L60.7,62.4z"/>
	</g>
	<path class="st1" d="M35.5,46.2l3,3.1l-3.6,2.4l0.2-1.8c-5.8-1.4-9.8-7.1-9.1-13.2c0.5-4.3,2.9-7.8,6.6-9.7
		c0.7-0.4,1.7,0.2,1.6,1.1c0,0.4-0.3,0.7-0.6,0.8c-2.9,1.5-5,4.4-5.4,7.9c-0.5,5,2.6,9.4,7.2,10.7L35.5,46.2z M41.1,24.2l-3.6,2.4
		l3,3.1l0.2-1.5c4.6,1.3,7.7,5.8,7.2,10.7c-0.4,3.5-2.5,6.4-5.4,7.9c-0.3,0.2-0.6,0.5-0.6,0.8l0,0c-0.1,0.9,0.8,1.5,1.6,1.1
		c3.5-1.8,6.1-5.4,6.6-9.7c0.7-6.2-3.4-11.8-9.1-13.2L41.1,24.2z"/>
</g>
</svg>
