<?xml version="1.0" encoding="utf-8"?>
<!-- Generator: Adobe Illustrator 22.1.0, SVG Export Plug-In . SVG Version: 6.00 Build 0)  -->
<svg version="1.1" id="Слой_1" xmlns="http://www.w3.org/2000/svg" xmlns:xlink="http://www.w3.org/1999/xlink" x="0px" y="0px"
	 viewBox="0 0 34 34" style="enable-background:new 0 0 34 34;" xml:space="preserve">
<style type="text/css">
	.st0{fill:#D71821;}
	.st1{fill:#FFFFFF;}
</style>
<g>
	<g>
		<polygon class="st0" points="27.8,8.4 27.8,17.5 21.5,23.9 19.2,23.9 19.2,32 14.8,32 14.8,23.9 12.5,23.9 6.2,17.5 6.2,8.4 
			12.5,2 21.5,2 		"/>
		<path class="st1" d="M29.2,7L23,0.6L22.4,0H11.6L11,0.6L4.8,7L4.2,7.6v10.7l0.6,0.6l6.2,6.4l0.6,0.6h1.2V34h8.3v-8.1h1.2l0.6-0.6
			l6.2-6.4l0.6-0.6V7.6L29.2,7z M27.8,17.5l-6.2,6.4h-2.4V32h-4.3v-8.1h-2.3l-6.2-6.4V8.4L12.5,2h9.1l6.2,6.4V17.5z"/>
	</g>
	<g>
		<path class="st1" d="M8.6,14.3c0.3,0.2,0.8,0.3,1.3,0.3c0.5,0,0.8-0.2,0.8-0.5c0-0.3-0.2-0.5-0.9-0.7c-0.8-0.3-1.4-0.8-1.4-1.5
			c0-0.9,0.7-1.5,1.9-1.5c0.6,0,1,0.1,1.3,0.3l-0.3,0.9c-0.2-0.1-0.6-0.2-1.1-0.2c-0.5,0-0.7,0.2-0.7,0.5c0,0.3,0.3,0.5,0.9,0.7
			c0.9,0.3,1.3,0.8,1.3,1.5c0,0.9-0.7,1.6-2,1.6c-0.6,0-1.2-0.2-1.4-0.3L8.6,14.3z"/>
		<path class="st1" d="M13.6,11.4h-1.4v-1h3.9v1h-1.4v4.1h-1.2V11.4z"/>
		<path class="st1" d="M21.2,12.9c0,1.7-1,2.7-2.5,2.7c-1.5,0-2.4-1.1-2.4-2.6c0-1.5,1-2.7,2.5-2.7C20.4,10.3,21.2,11.5,21.2,12.9z
			 M17.5,13c0,1,0.5,1.7,1.2,1.7c0.8,0,1.2-0.7,1.2-1.7c0-0.9-0.4-1.7-1.2-1.7C18,11.2,17.5,12,17.5,13z"/>
		<path class="st1" d="M22,10.5c0.4-0.1,0.9-0.1,1.6-0.1c0.7,0,1.2,0.1,1.6,0.4c0.3,0.3,0.5,0.7,0.5,1.2s-0.2,0.9-0.5,1.2
			c-0.4,0.4-1,0.5-1.6,0.5c-0.2,0-0.3,0-0.4,0v1.8H22V10.5z M23.1,12.8c0.1,0,0.2,0,0.4,0c0.6,0,1-0.3,1-0.8c0-0.5-0.3-0.7-0.9-0.7
			c-0.2,0-0.4,0-0.5,0V12.8z"/>
	</g>
</g>
</svg>
